<?xml version="1.0" encoding="utf-8"?>
<!-- Generator: Adobe Illustrator 16.0.0, SVG Export Plug-In . SVG Version: 6.00 Build 0)  -->
<!DOCTYPE svg PUBLIC "-//W3C//DTD SVG 1.1//EN" "http://www.w3.org/Graphics/SVG/1.1/DTD/svg11.dtd">
<svg version="1.1" id="Layer_1" xmlns="http://www.w3.org/2000/svg" xmlns:xlink="http://www.w3.org/1999/xlink" x="0px" y="0px"
	 width="46.068px" height="32.512px" viewBox="0 0 46.068 32.512" enable-background="new 0 0 46.068 32.512" xml:space="preserve">
<path fill="#FFFFFF" d="M9.394,20.387c-1.38,2.754-4.039,4.486-6.981,4.486c-0.256,0-0.76-0.039-0.76-0.039L0,24.701l1.45-0.804
	c0.046-0.028,4.659-2.643,4.675-7.638c0.013-4.166-4.68-7.631-4.727-7.666L0.306,7.799l1.347-0.105c0,0,0.504-0.04,0.76-0.04
	c2.931,0,5.578,1.722,6.965,4.454c3.325-4.336,11.458-7.521,19.487-7.521c0.691,0,1.384,0.022,2.066,0.067
	c10.443,0.698,15.012,11.308,15.057,11.414l0.081,0.191l-0.081,0.192c-0.045,0.107-4.614,10.749-15.058,11.415
	c-0.627,0.04-1.258,0.06-1.889,0.06C20.976,27.927,12.771,24.733,9.394,20.387z M30.862,5.652c-0.658-0.044-1.331-0.065-2-0.065
	c-8.169,0-16.404,3.353-19.157,7.796l-0.526,0.854l-0.362-0.938c-1.004-2.6-3.217-4.353-5.748-4.612
	c1.513,1.38,4.071,4.211,4.058,7.576c-0.01,3.775-2.288,6.283-3.822,7.549c2.44-0.344,4.554-2.077,5.523-4.615l0.356-0.936
	l0.533,0.847c2.764,4.383,11.257,7.819,19.325,7.819c0.607,0,1.218-0.019,1.821-0.058c9.062-0.576,13.454-9.2,14.112-10.609
	C44.318,14.854,39.935,6.257,30.862,5.652z"/>
<path fill="#FFFFFF" d="M32.664,5.881c-0.593-0.112-1.201-0.19-1.805-0.23c-1.152-0.077-2.349-0.085-3.526-0.025L26.812,5.65V0.501
	L26.824,0h0.5c3.066,0,5.617,2.295,5.937,5.339l0.067,0.67L32.664,5.881z M27.812,4.604c1.041-0.035,2.097-0.019,3.117,0.049
	c0.407,0.025,0.815,0.07,1.221,0.129c-0.495-2.038-2.227-3.549-4.338-3.756V4.604z"/>
<path fill="#FFFFFF" d="M26.814,32.509V26.86l0.521,0.024c1.176,0.06,2.375,0.054,3.526-0.024c0.607-0.04,1.212-0.118,1.805-0.231
	l0.661-0.126l-0.067,0.67c-0.322,3.044-2.873,5.339-5.937,5.339L26.814,32.509z M30.929,27.858
	c-1.018,0.068-2.076,0.084-3.117,0.049v3.581c2.106-0.204,3.842-1.716,4.338-3.758C31.744,27.789,31.335,27.832,30.929,27.858z"/>
<path fill="#FFFFFF" d="M15.876,7.704c-0.113-1.005-0.615-1.909-1.414-2.547l-0.538-0.432l0.578-0.377
	c0.737-0.478,1.591-0.731,2.467-0.731c1.647,0,3.166,0.898,3.965,2.34l0.309,0.56l-0.615,0.167c-1.417,0.383-2.777,0.86-4.049,1.423
	l-0.621,0.272L15.876,7.704z M15.635,4.881c0.539,0.585,0.925,1.29,1.119,2.062c0.941-0.391,1.927-0.736,2.942-1.036
	C18.744,4.749,17.031,4.307,15.635,4.881z"/>
<path fill="#FFFFFF" d="M14.51,28.164l-0.58-0.378l0.54-0.432c0.796-0.639,1.298-1.541,1.414-2.546l0.075-0.676l0.621,0.273
	c1.272,0.562,2.634,1.04,4.052,1.424l0.612,0.167l-0.309,0.56c-0.799,1.442-2.319,2.339-3.965,2.339
	C16.095,28.896,15.242,28.643,14.51,28.164z M16.753,25.568c-0.194,0.771-0.578,1.476-1.119,2.061
	c1.397,0.578,3.11,0.133,4.063-1.022C18.682,26.308,17.695,25.96,16.753,25.568z"/>
<circle fill="#FFFFFF" cx="38.225" cy="13.323" r="1.309"/>
<path fill="#FFFFFF" d="M32.263,16.967c0-0.25,0.006-0.494,0.023-0.739l0.998,0.069c-0.013,0.223-0.021,0.443-0.021,0.669
	c0,3.228,1.763,6.252,4.604,7.896l-0.5,0.865C34.218,23.906,32.262,20.549,32.263,16.967z"/>
</svg>
