<?xml version="1.0" encoding="utf-8"?>
<!-- Generator: Adobe Illustrator 16.0.0, SVG Export Plug-In . SVG Version: 6.00 Build 0)  -->
<!DOCTYPE svg PUBLIC "-//W3C//DTD SVG 1.1//EN" "http://www.w3.org/Graphics/SVG/1.1/DTD/svg11.dtd">
<svg version="1.1" id="Layer_1" xmlns="http://www.w3.org/2000/svg" xmlns:xlink="http://www.w3.org/1999/xlink" x="0px" y="0px"
	 width="23px" height="13.987px" viewBox="38.122 8.5 23 13.987" enable-background="new 38.122 8.5 23 13.987"
	 xml:space="preserve">
<g>
	<g>
		<path fill="#686868" d="M60.313,8.5H58.36c-0.385,0-0.717,0.276-0.793,0.661l-0.678,3.452h-14.03l-0.679-3.452
			C42.105,8.776,41.773,8.5,41.388,8.5h-2.457c-0.447,0-0.809,0.368-0.809,0.823c0,0.454,0.361,0.823,0.809,0.823h1.795l0.672,3.418
			c0.004,0.023,0.009,0.048,0.014,0.07l1.351,6.865c0.226,1.159,1.222,1.988,2.362,1.988c0.016,0,0.031-0.001,0.047-0.001h9.457
			c1.18,0.014,2.194-0.813,2.426-1.992l1.293-6.903c0-0.001,0-0.002,0-0.003l0.676-3.442h1.291c0.447,0,0.809-0.369,0.809-0.823
			C61.122,8.868,60.761,8.5,60.313,8.5z M48.452,18.321L48.24,17.24h3.223l-0.212,1.081H48.452z M50.928,19.967l-0.172,0.874h-1.809
			l-0.172-0.874H50.928z M43.769,17.24h2.823l0.212,1.081h-2.822L43.769,17.24z M47.917,15.595l-0.263-1.335h4.395l-0.263,1.335
			H47.917z M53.111,17.24h2.906l-0.202,1.081h-2.917L53.111,17.24z M56.325,15.595h-2.891l0.263-1.335h2.878L56.325,15.595z
			 M46.006,14.26l0.263,1.335h-2.823l-0.263-1.335H46.006z M45.155,20.841c-0.428,0.015-0.732-0.271-0.809-0.663l-0.042-0.211h2.822
			l0.172,0.874H45.155z M54.659,20.841h-2.256l0.172-0.874h2.933l-0.04,0.212C55.392,20.564,55.06,20.841,54.659,20.841z"/>
	</g>
</g>
</svg>
