<?xml version="1.0" encoding="utf-8"?>
<!-- Generator: Adobe Illustrator 16.0.0, SVG Export Plug-In . SVG Version: 6.00 Build 0)  -->
<!DOCTYPE svg PUBLIC "-//W3C//DTD SVG 1.1//EN" "http://www.w3.org/Graphics/SVG/1.1/DTD/svg11.dtd">
<svg version="1.1" id="Layer_1" xmlns="http://www.w3.org/2000/svg" xmlns:xlink="http://www.w3.org/1999/xlink" x="0px" y="0px"
	 width="49.673px" height="29.85px" viewBox="0 0 49.673 29.85" enable-background="new 0 0 49.673 29.85" xml:space="preserve">
<path fill="#FFFFFF" d="M0,14.926C0,5.72,5.986,0,15.622,0h25.13l-0.943,0.868c-2.362,2.169-8.41,7.516-13.532,10.309
	c-2.73,1.486-5.105,2.24-7.062,2.24c-1.1,0-1.774-0.244-2.095-0.402c-0.793,0.204-4.043,1.175-5.348,3.662
	c-0.772,1.47-0.73,3.242,0.124,5.268c1.081,2.565,4.637,3.572,5.712,3.822c0.411-0.509,1.445-1.396,3.669-1.396l0.172,0.001
	c2.817,0.057,4.683,1.044,8.692,4.604l0.98,0.874H16.958C8.953,29.85-0.001,23.467,0,14.926z M21.426,25.366l-0.151-0.001
	c-2.373,0-2.969,1.125-2.99,1.165l-0.161,0.351l-0.379-0.066c-0.213-0.036-5.288-0.96-6.771-4.485
	c-0.977-2.313-1.006-4.373-0.09-6.12c1.699-3.239,6.021-4.18,6.203-4.218l0.212-0.038l0.177,0.116
	c0.006,0.004,0.539,0.348,1.735,0.348c1.229,0,3.367-0.366,6.58-2.118C30.23,7.875,35.41,3.474,38.168,1H15.619
	C6.602,1,0.997,6.338,0.997,14.926c0,7.842,8.579,13.924,15.96,13.924h11.518C25.358,26.19,23.723,25.415,21.426,25.366z"/>
<path fill="#FFFFFF" d="M12.912,5.16l0.994,0.101c-0.424,4.27,3.507,6.771,3.547,6.796l-0.523,0.851
	C16.744,12.793,12.426,10.061,12.912,5.16z"/>
<path fill="#FFFFFF" d="M6.437,9.36l0.922-0.386c1.933,4.618,5.854,4.709,6.021,4.71l-0.005,1
	C13.183,14.684,8.632,14.609,6.437,9.36z"/>
<path fill="#FFFFFF" d="M4.32,15.56l0.729-0.688c2.631,2.794,5.594,2.548,5.72,2.536l0.1,0.995
	c-0.022,0.002-0.154,0.014-0.366,0.014C9.525,18.417,6.777,18.163,4.32,15.56z"/>
<path fill="#FFFFFF" d="M6.807,22.339l0.182-0.983c1.999,0.368,3.85-0.584,3.87-0.593l0.467,0.884
	c-0.072,0.038-1.527,0.794-3.372,0.794C7.583,22.44,7.199,22.41,6.807,22.339z"/>
<path fill="#FFFFFF" d="M20.91,14.597c-0.857-0.817-0.85-1.768-0.849-1.808l1,0.015c0,0.024,0.012,0.582,0.559,1.088
	c0.719,0.666,2.056,0.951,3.855,0.826l0.067,0.998c-0.305,0.019-0.597,0.03-0.877,0.03C22.976,15.746,21.712,15.359,20.91,14.597z"
	/>
<path fill="#FFFFFF" d="M14.831,13.328l0.912-0.412c1.371,3.036,5.317,3.15,5.357,3.15l-0.021,1
	C20.893,17.063,16.463,16.946,14.831,13.328z"/>
<path fill="#FFFFFF" d="M12.451,14.822l0.861-0.509c2.204,3.741,5.83,3.443,5.98,3.429l0.102,0.995
	c-0.031,0.003-0.165,0.015-0.385,0.015C17.885,18.752,14.574,18.428,12.451,14.822z"/>
<path fill="#FFFFFF" d="M10.823,16.792l0.891-0.451c1.591,3.12,7.092,3.027,7.154,3.027l0.023,1
	c-0.021,0.001-0.067,0.001-0.14,0.001C17.813,20.369,12.562,20.214,10.823,16.792z"/>
<rect x="32.953" y="0.001" fill="#FFFFFF" width="10.003" height="1"/>
<rect x="36.116" y="1.183" fill="#FFFFFF" width="5.354" height="1"/>
<rect x="28.471" y="7.155" fill="#FFFFFF" width="21.202" height="1"/>
<circle fill="#FFFFFF" cx="26.469" cy="4.893" r="1.192"/>
<polygon fill="#FFFFFF" points="33.752,5.162 44.885,5.162 44.885,6.162 32.702,6.162 "/>
</svg>
