<?xml version="1.0" encoding="utf-8"?>
<!-- Generator: Adobe Illustrator 16.0.0, SVG Export Plug-In . SVG Version: 6.00 Build 0)  -->
<!DOCTYPE svg PUBLIC "-//W3C//DTD SVG 1.1//EN" "http://www.w3.org/Graphics/SVG/1.1/DTD/svg11.dtd">
<svg version="1.1" id="Layer_1" xmlns="http://www.w3.org/2000/svg" xmlns:xlink="http://www.w3.org/1999/xlink" x="0px" y="0px"
	 width="64.325px" height="32.142px" viewBox="0 0 64.325 32.142" enable-background="new 0 0 64.325 32.142" xml:space="preserve">
<circle fill="#030303" cx="52.996" cy="12.225" r="1.309"/>
<g>
	<path fill="#030303" d="M12.921,22.243c-1.169,2.222-3.347,3.614-5.755,3.614c-0.213,0-0.633-0.034-0.633-0.034L4.893,25.69
		l1.438-0.802c0.038-0.021,3.785-2.16,3.798-6.199c0.009-3.378-3.811-6.202-3.849-6.229L5.192,11.67l1.339-0.111
		c0,0,0.42-0.035,0.634-0.035c2.396,0,4.568,1.382,5.74,3.586c2.803-3.526,9.445-6.104,16.005-6.104
		c0.564,0,1.134,0.019,1.702,0.057c8.638,0.579,12.415,9.35,12.452,9.438l0.08,0.191l-0.08,0.192
		c-0.037,0.088-3.813,8.887-12.454,9.438c-0.518,0.033-1.035,0.051-1.555,0.051C22.467,28.373,15.765,25.785,12.921,22.243z
		 M30.546,10.062c-7.256-0.497-14.879,2.387-17.31,6.313l-0.529,0.854l-0.362-0.938c-0.775-2.014-2.444-3.399-4.38-3.701
		c1.268,1.202,3.172,3.452,3.163,6.105c-0.009,2.94-1.67,4.956-2.929,6.062c1.841-0.375,3.411-1.74,4.155-3.686l0.354-0.934
		l0.533,0.846c2.429,3.854,10.225,6.786,17.303,6.342c7.323-0.467,10.916-7.38,11.508-8.633
		C41.462,17.441,37.879,10.552,30.546,10.062z"/>
	<path fill="#030303" d="M32.018,10.252c-0.483-0.093-0.979-0.156-1.473-0.189c-0.968-0.065-1.933-0.067-2.888-0.021l-0.525,0.025
		V5.739l0.08-0.438l0.431-0.063c2.564,0,4.697,1.923,4.968,4.47l0.069,0.671L32.018,10.252z M28.133,9.021
		C28.955,9,29.784,9.009,30.612,9.064c0.293,0.021,0.586,0.049,0.877,0.088c-0.434-1.56-1.772-2.71-3.356-2.892V9.021z"/>
	<path fill="#030303" d="M27.132,32.073v-4.762l0.524,0.026c0.953,0.047,1.92,0.045,2.889-0.021
		c0.487-0.032,0.983-0.094,1.475-0.188l0.659-0.126l-0.068,0.67c-0.271,2.548-2.405,4.469-4.968,4.469L27.132,32.073z
		 M30.612,28.315c-0.828,0.058-1.657,0.066-2.479,0.043v2.753c1.605-0.195,2.925-1.339,3.356-2.885
		C31.195,28.267,30.903,28.297,30.612,28.315z"/>
	<path fill="#030303" d="M18.146,11.672c-0.094-0.805-0.493-1.524-1.131-2.033l-0.54-0.433l0.58-0.377
		c0.621-0.404,1.34-0.617,2.073-0.617c1.387,0,2.666,0.755,3.337,1.972l0.311,0.558l-0.616,0.166
		c-1.156,0.313-2.271,0.704-3.314,1.164l-0.621,0.274L18.146,11.672z M18.184,9.378c0.389,0.444,0.671,0.969,0.83,1.536
		c0.708-0.29,1.445-0.55,2.201-0.776C20.477,9.32,19.236,8.998,18.184,9.378z"/>
	<path fill="#030303" d="M17.06,28.552l-0.579-0.377l0.539-0.435c0.638-0.508,1.036-1.229,1.131-2.031l0.076-0.677l0.621,0.275
		c1.041,0.46,2.156,0.852,3.314,1.165l0.616,0.166l-0.311,0.558c-0.671,1.217-1.948,1.972-3.337,1.972
		C18.396,29.168,17.677,28.955,17.06,28.552z M19.013,26.469c-0.158,0.564-0.44,1.089-0.829,1.535
		c1.054,0.377,2.295,0.055,3.031-0.761C20.458,27.017,19.72,26.757,19.013,26.469z"/>
	<circle fill="#030303" cx="36.604" cy="16.279" r="1.076"/>
	<path fill="#030303" d="M31.613,19.274c0-0.207,0.006-0.412,0.021-0.615l0.998,0.07c-0.013,0.18-0.019,0.361-0.019,0.545
		c0,2.62,1.432,5.077,3.741,6.413l-0.503,0.865C33.237,25.039,31.612,22.25,31.613,19.274z"/>
</g>
<g>
	<path fill="#030303" d="M12.344,16.29c-0.704-1.827-2.188-3.173-3.971-3.604l-1.355-0.327l1.256-0.607
		c4.208-2.042,11.591-4.173,19.271-5.563l0.589-0.104v3.933l-0.476,0.023c-1.901,0.094-3.797,0.399-5.644,0.91l-0.125-0.448
		l-0.298,0.164c-0.651-1.182-2.15-1.742-3.409-1.288c0.529,0.61,0.862,1.363,0.957,2.179l-0.434,0.05l0.2,0.44l-0.024,0.011
		c-2.635,1.16-4.64,2.693-5.646,4.316l-0.529,0.854L12.344,16.29z M17.025,9.644c-2.777,0.797-5.251,1.65-7.207,2.499
		c1.294,0.612,2.379,1.653,3.085,2.971c1.136-1.43,2.935-2.749,5.183-3.793C17.931,10.663,17.563,10.076,17.025,9.644z
		 M27.133,9.068l0.002-1.789c-2.142,0.401-4.253,0.856-6.27,1.349c0.552,0.285,1.036,0.702,1.397,1.223
		C23.862,9.441,25.495,9.179,27.133,9.068L27.133,9.068z"/>
	<path fill="#030303" d="M38.425,24.856l-1.157-0.088l0.857-0.781c2.323-2.11,3.596-4.593,3.928-5.297
		c-0.552-1.166-3.705-7.223-10.034-8.439l-0.362-0.07l-0.039-0.368c-0.135-1.283-0.904-2.427-2.053-3.063l-1.271-0.701l1.434-0.229
		c6.77-1.09,12.894-1.414,17.239-0.894c6.828,0.81,17.358,5.502,17.358,10.07c0,3.789-10.406,9.814-17.398,10.072
		c-0.732,0.026-1.485,0.04-2.254,0.04C42.736,25.108,40.633,25.023,38.425,24.856z M31.072,6.621
		c0.768,0.726,1.295,1.678,1.484,2.721c7.261,1.603,10.375,8.845,10.508,9.158l0.081,0.191l-0.081,0.194
		c-0.052,0.117-1.124,2.63-3.452,5.051c2.623,0.168,5.037,0.217,7.276,0.131c7.229-0.264,16.438-6.344,16.438-9.072
		c0-3.6-9.437-8.24-16.479-9.078c-1.333-0.158-2.839-0.239-4.479-0.239C39.094,5.678,35.211,6.003,31.072,6.621z"/>
	<path fill="#030303" d="M0.71,21.881c1.505-1.76,2.368-4.312,2.368-6.989S2.215,9.666,0.71,7.902L0.004,7.078l1.087,0.001
		c3.106,0.004,5.897,1.89,7.11,4.803l0.322,0.774L7.982,12.6c1.265,1.206,3.154,3.448,3.146,6.092l-0.002,0.728l-0.677-0.262
		c-0.883-0.338-1.668-0.672-2.342-0.994c-1.257,2.734-4.012,4.541-7.021,4.545L0,22.709L0.71,21.881z M8.08,17.028
		c0.561,0.29,1.227,0.592,1.986,0.9c-0.487-3.032-3.754-5.445-3.788-5.47l-1.087-0.791l1.339-0.111c0,0,0.195-0.015,0.388-0.026
		C5.906,9.727,4.153,8.491,2.153,8.164c1.23,1.853,1.921,4.241,1.921,6.727s-0.691,4.872-1.92,6.726
		c2.343-0.388,4.371-2.025,5.229-4.315l0.197-0.526L8.08,17.028z"/>
	<path fill="#030303" d="M31.594,7.809c6.528-1.361,15.931-0.903,16.025-0.896l-0.051,0.996c-0.092-0.005-9.369-0.451-15.771,0.881
		L31.594,7.809z"/>
	<path fill="#030303" d="M34.895,10.184c6.521-0.792,11.901-0.42,11.957-0.416l-0.071,0.998c-0.055-0.004-5.337-0.368-11.767,0.41
		L34.895,10.184z"/>
	<path fill="#030303" d="M38.973,13.033c5.125-0.187,7.306-0.006,7.396,0.002l-0.086,0.996c-0.023-0.002-2.228-0.183-7.271,0.002
		L38.973,13.033z"/>
	<rect x="41.625" y="16.372" fill="#030303" width="4.7" height="1"/>
	<path fill="#030303" d="M41.132,20.727c2.191-0.122,6.646-0.388,6.647-0.388l0.059,0.998c0,0-4.458,0.266-6.649,0.388
		L41.132,20.727z"/>
	<path fill="#030303" d="M11.069,13.482c2.703-2.131,6.92-3.424,7.099-3.478l0.289,0.957c-0.041,0.013-4.212,1.291-6.769,3.306
		L11.069,13.482z"/>
	<path fill="#030303" d="M21.381,9.289c0.102-0.036,2.49-0.842,6.229-1.017l0.047,0.998c-3.585,0.168-5.927,0.954-5.949,0.962
		L21.381,9.289z"/>
</g>
<path fill="#030303" d="M45.825,15.2c0-0.334,0.015-0.666,0.04-0.954c0.002-0.207,0.061-5.106,2.065-8.841l0.883,0.475
	c-1.888,3.514-1.948,8.326-1.95,8.412c-0.025,0.301-0.038,0.602-0.038,0.908c0,3.242,1.395,6.248,3.926,8.472l-0.66,0.752
	C47.38,22.045,45.825,18.683,45.825,15.2z"/>
<g>
	<g>
		<path fill="#030303" d="M33.95,0.978L33.173,0l1.237,0.171c3.393,0.467,6.439,2.132,8.578,4.687L42.219,5.5
			c-1.722-2.059-4.087-3.493-6.749-4.115c0.785,1.218,1.335,2.545,1.646,3.96l-0.979,0.213C35.773,3.887,35.036,2.346,33.95,0.978z"
			/>
	</g>
	<g>
		<path fill="#030303" d="M15.797,6.705l-0.771-0.55l0.936-0.136c2.405-0.347,4.832,0.134,6.847,1.363l-0.395,0.646
			c-1.609-0.979-3.513-1.448-5.426-1.35c0.629,0.551,1.179,1.182,1.641,1.885l-0.633,0.416C17.41,8.089,16.671,7.322,15.797,6.705z"
			/>
	</g>
</g>
<g>
	<g>
		<path fill="#030303" d="M33.947,28.69c0.663-0.83,1.202-1.743,1.604-2.713l0.926,0.383c-0.28,0.669-0.616,1.315-1.011,1.927
			c2.664-0.621,5.029-2.056,6.751-4.115l0.77,0.641c-2.138,2.555-5.183,4.22-8.578,4.688l-1.237,0.171L33.947,28.69z"/>
	</g>
</g>
<path fill="#030303" d="M35.262,28.362c3.036-1.892,4.192-3.972,4.204-3.992l0.88,0.476c-0.051,0.094-1.275,2.322-4.555,4.366
	L35.262,28.362z"/>
<path fill="#030303" d="M34.318,1.15l0.428-0.902c3.346,1.582,5.255,4.604,5.335,4.732L39.232,5.51
	C39.213,5.479,37.389,2.602,34.318,1.15z"/>
<path fill="#030303" d="M16.58,7.016l0.176-0.984c2.832,0.506,3.758,1.942,3.795,2.003l-0.845,0.534
	C19.698,8.558,18.938,7.435,16.58,7.016z"/>
<path fill="#030303" d="M7.365,17.355c0.006-0.02,0.529-2.176,0.004-4.04l0.963-0.271C8.93,15.162,8.36,17.5,8.336,17.599
	L7.365,17.355z"/>
<path fill="#030303" d="M1.974,20.343c2.917-0.459,5.125-2.334,5.147-2.355l0.653,0.759c-0.101,0.085-2.44,2.082-5.646,2.587
	L1.974,20.343z"/>
<path fill="#030303" d="M3.242,17.136c3.657-0.281,4.286-1.247,4.292-1.257l0.898,0.434c-0.106,0.247-0.866,1.493-5.114,1.819
	L3.242,17.136z"/>
<rect x="3.575" y="14.393" fill="#030303" width="4.276" height="1"/>
<path fill="#030303" d="M3.302,12.651c-0.006,0-0.013,0-0.019,0l-0.004-1c0.006,0,0.014,0,0.021,0c3,0,5.02,2.073,5.104,2.162
	L7.68,14.505C7.663,14.485,5.877,12.65,3.302,12.651z"/>
<path fill="#030303" d="M2.348,10.006l0.006-1c3.319,0.015,5.359,2.017,5.444,2.102l-0.707,0.707
	C7.074,11.798,5.261,10.019,2.348,10.006z"/>
</svg>
