<?xml version="1.0" encoding="utf-8"?>
<!-- Generator: Adobe Illustrator 16.0.0, SVG Export Plug-In . SVG Version: 6.00 Build 0)  -->
<!DOCTYPE svg PUBLIC "-//W3C//DTD SVG 1.1//EN" "http://www.w3.org/Graphics/SVG/1.1/DTD/svg11.dtd">
<svg version="1.1" id="Layer_1" xmlns="http://www.w3.org/2000/svg" xmlns:xlink="http://www.w3.org/1999/xlink" x="0px" y="0px"
	 width="13px" height="15px" viewBox="43.122 7 13 15" enable-background="new 43.122 7 13 15" xml:space="preserve">
<g>
	<g>
		<path fill="#686868" d="M49.622,7c-3.585,0-6.5,2.804-6.5,6.25c0,4.656,5.889,8.484,6.14,8.645c0.109,0.07,0.234,0.105,0.36,0.105
			s0.251-0.035,0.36-0.105c0.251-0.16,6.14-3.988,6.14-8.645C56.122,9.804,53.206,7,49.622,7z M49.622,20.606
			c-1.233-0.88-5.2-3.974-5.2-7.356c0-2.757,2.333-5,5.2-5s5.2,2.243,5.2,5C54.822,16.633,50.855,19.727,49.622,20.606z
			 M49.622,10.75c-1.434,0-2.601,1.122-2.601,2.5c0,1.379,1.167,2.5,2.601,2.5c1.435,0,2.601-1.121,2.601-2.5
			C52.223,11.872,51.057,10.75,49.622,10.75z M49.622,14.5c-0.717,0-1.3-0.561-1.3-1.25s0.583-1.25,1.3-1.25
			c0.716,0,1.3,0.561,1.3,1.25S50.338,14.5,49.622,14.5z"/>
	</g>
</g>
</svg>
