<?xml version="1.0" encoding="utf-8"?>
<!-- Generator: Adobe Illustrator 16.0.0, SVG Export Plug-In . SVG Version: 6.00 Build 0)  -->
<!DOCTYPE svg PUBLIC "-//W3C//DTD SVG 1.1//EN" "http://www.w3.org/Graphics/SVG/1.1/DTD/svg11.dtd">
<svg version="1.1" id="Layer_1" xmlns="http://www.w3.org/2000/svg" xmlns:xlink="http://www.w3.org/1999/xlink" x="0px" y="0px"
	 width="22px" height="22px" viewBox="1 1 22 22" enable-background="new 1 1 22 22" xml:space="preserve">
<path fill="#0D539A" d="M12,23C5.935,23,1,18.065,1,12S5.935,1,12,1s11,4.935,11,11S18.065,23,12,23z M12,3c-4.962,0-9,4.038-9,9
	c0,4.963,4.038,9,9,9c4.963,0,9-4.037,9-9C21,7.038,16.963,3,12,3z"/>
<path fill="#0D539A" d="M12,17c-0.552,0-1-0.447-1-1V8c0-0.552,0.448-1,1-1c0.553,0,1,0.448,1,1v8C13,16.553,12.553,17,12,17z"/>
<path fill="#0D539A" d="M16,13H8c-0.552,0-1-0.447-1-1c0-0.552,0.448-1,1-1h8c0.553,0,1,0.448,1,1C17,12.553,16.553,13,16,13z"/>
</svg>
