<?xml version="1.0" encoding="utf-8"?>
<!-- Generator: Adobe Illustrator 16.0.0, SVG Export Plug-In . SVG Version: 6.00 Build 0)  -->
<!DOCTYPE svg PUBLIC "-//W3C//DTD SVG 1.1//EN" "http://www.w3.org/Graphics/SVG/1.1/DTD/svg11.dtd">
<svg version="1.1" id="Layer_1" xmlns="http://www.w3.org/2000/svg" xmlns:xlink="http://www.w3.org/1999/xlink" x="0px" y="0px"
	 width="43.708px" height="36.869px" viewBox="0 0 43.708 36.869" enable-background="new 0 0 43.708 36.869" xml:space="preserve">
<path fill="#FFFFFF" d="M21.854,33.807c-6.396,0-11.551-6.318-11.551-11.551c0-4.681,4.21-7.363,11.551-7.363
	s11.551,2.685,11.551,7.363C33.404,27.488,28.253,33.807,21.854,33.807z M21.854,15.894c-3.938,0-10.551,0.827-10.551,6.363
	c0,4.75,4.868,10.551,10.551,10.551c5.686,0,10.551-5.801,10.551-10.551C32.404,16.72,25.795,15.894,21.854,15.894z"/>
<path fill="#FFFFFF" d="M39.581,13.993c-1.646,0-3.903-0.864-5.298-3.295c-1.904-3.316-4.896-7.756-8.606-7.516l-0.848,0.055
	l0.36-0.768C25.237,2.367,26.4,0,30.049,0c0.416,0,0.854,0.03,1.304,0.095c4.442,0.622,8.874,5.165,10.004,7.425
	c0.813,1.627,1.733,3.986,0.35,5.688C41.298,13.707,40.522,13.993,39.581,13.993z M26.631,2.214c3.719,0.433,6.492,4.457,8.52,7.986
	c1.186,2.063,3.125,2.793,4.433,2.793c0.745,0,1.189-0.226,1.35-0.417c0.777-0.953,0.629-2.417-0.466-4.606
	c-1.021-2.039-5.207-6.315-9.248-6.882c-0.402-0.058-0.795-0.085-1.165-0.085C28.249,1.002,27.191,1.67,26.631,2.214z"/>
<path fill="#FFFFFF" d="M33.343,12.023c-0.667,0-1.503-0.129-2.521-0.503c-3.021-1.109-5.485-4.68-5.592-4.832l-0.534-0.781h7.345v1
	h-5.391c0.873,1.08,2.607,2.977,4.519,3.675c2.538,0.934,3.604,0.099,3.614,0.091l0.654,0.754
	C35.396,11.462,34.742,12.023,33.343,12.023z"/>
<path fill="#FFFFFF" d="M32.383,19.629c-0.14,0-0.272-0.009-0.396-0.021l0.115-0.993c1.269,0.146,3.964-0.768,5.684-1.717
	c2.512-1.391,1.93-2.442,1.681-2.893c-0.043-0.077-0.089-0.151-0.14-0.224l0.809-0.588c0.074,0.104,0.142,0.209,0.205,0.323
	c0.601,1.086,0.729,2.704-2.07,4.253C36.536,18.73,33.975,19.629,32.383,19.629z"/>
<path fill="#FFFFFF" d="M31.702,18.217l-0.974-0.24c0.37-1.491,2.896-3.85,4.902-4.962c0.501-0.276,0.974-0.485,1.403-0.621
	l0.298,0.955c-0.365,0.114-0.775,0.296-1.219,0.541C34.162,14.971,31.975,17.114,31.702,18.217z"/>
<path fill="#FFFFFF" d="M43.209,24.646c-0.169,0-0.334-0.085-0.431-0.239c-0.018-0.026-1.739-2.799-4.652-2.931
	c-2.923-0.146-4.895,2.125-4.911,2.148c-0.178,0.21-0.493,0.234-0.704,0.057c-0.21-0.179-0.236-0.493-0.059-0.704
	c0.092-0.108,2.3-2.65,5.719-2.5c3.455,0.156,5.385,3.277,5.465,3.41c0.143,0.234,0.067,0.543-0.168,0.687
	C43.387,24.622,43.297,24.646,43.209,24.646z"/>
<path fill="#FFFFFF" d="M41.317,30.869c-0.212,0-0.405-0.136-0.477-0.349c-0.011-0.032-1.086-3.303-3.791-4.062
	c-2.283-0.64-4.817-0.028-4.844-0.023c-0.271,0.071-0.539-0.098-0.604-0.365c-0.063-0.269,0.101-0.539,0.366-0.604
	c0.113-0.029,2.822-0.68,5.352,0.029c3.23,0.906,4.429,4.565,4.478,4.723c0.083,0.263-0.063,0.543-0.325,0.627
	C41.42,30.862,41.369,30.869,41.317,30.869z"/>
<path fill="#FFFFFF" d="M37.289,36.869c-0.02,0-0.033,0-0.053-0.002c-0.271-0.025-0.476-0.271-0.446-0.546
	c0.004-0.034,0.311-3.463-1.874-5.229c-1.846-1.491-4.456-1.94-4.481-1.946c-0.271-0.045-0.457-0.303-0.411-0.575
	c0.046-0.271,0.31-0.458,0.575-0.411c0.118,0.021,2.901,0.5,4.946,2.154c2.605,2.111,2.257,5.945,2.239,6.107
	C37.759,36.678,37.542,36.869,37.289,36.869z"/>
<path fill="#FFFFFF" d="M4.13,13.993C4.129,13.993,4.129,13.993,4.13,13.993c-0.944,0-1.719-0.286-2.126-0.783
	c-1.387-1.701-0.467-4.062,0.347-5.688c1.13-2.261,5.563-6.803,10.004-7.425c0.448-0.063,0.891-0.095,1.307-0.095
	c3.646,0,4.812,2.367,4.856,2.47l0.363,0.768l-0.849-0.055c-3.727-0.246-6.701,4.197-8.606,7.516
	C8.032,13.129,5.774,13.993,4.13,13.993z M13.657,1.002c-0.368,0-0.764,0.027-1.163,0.085C8.453,1.651,4.265,5.93,3.246,7.969
	c-1.098,2.189-1.243,3.653-0.469,4.606c0.157,0.191,0.604,0.417,1.353,0.417c0,0,0,0,0.001,0c1.304,0,3.246-0.729,4.429-2.793
	c2.027-3.53,4.803-7.558,8.521-7.986C16.521,1.67,15.467,1.002,13.657,1.002z"/>
<path fill="#FFFFFF" d="M10.367,12.023c-1.398,0-2.058-0.563-2.098-0.598l0.656-0.754c0.011,0.009,1.079,0.842,3.615-0.091
	c1.912-0.7,3.645-2.596,4.517-3.675h-5.389v-1h7.342l-0.534,0.782c-0.104,0.151-2.564,3.722-5.592,4.831
	C11.87,11.896,11.032,12.023,10.367,12.023z"/>
<path fill="#FFFFFF" d="M11.327,19.629c-1.595,0-4.152-0.898-5.888-1.855c-2.799-1.549-2.671-3.167-2.068-4.252
	c0.063-0.112,0.131-0.223,0.206-0.324l0.809,0.588c-0.05,0.068-0.097,0.145-0.139,0.222c-0.25,0.449-0.832,1.504,1.68,2.896
	c1.715,0.948,4.412,1.861,5.681,1.716l0.115,0.993C11.599,19.621,11.466,19.629,11.327,19.629z"/>
<path fill="#FFFFFF" d="M12.008,18.217c-0.272-1.103-2.46-3.245-4.416-4.327c-0.441-0.245-0.854-0.427-1.217-0.541l0.297-0.955
	c0.431,0.135,0.903,0.344,1.404,0.621c2.009,1.112,4.529,3.472,4.899,4.962L12.008,18.217z"/>
<path fill="#FFFFFF" d="M0.501,24.646c-0.089,0-0.178-0.022-0.259-0.071c-0.236-0.144-0.313-0.449-0.169-0.688
	c0.077-0.133,2.01-3.254,5.465-3.41c3.386-0.149,5.627,2.393,5.719,2.5c0.178,0.21,0.151,0.525-0.059,0.704
	c-0.213,0.18-0.524,0.153-0.704-0.059c-0.021-0.021-1.96-2.293-4.911-2.146c-2.928,0.133-4.641,2.901-4.654,2.931
	C0.835,24.561,0.67,24.646,0.501,24.646z"/>
<path fill="#FFFFFF" d="M2.391,30.869c-0.05,0-0.102-0.008-0.151-0.022c-0.263-0.084-0.405-0.364-0.322-0.627
	c0.049-0.155,1.244-3.814,4.475-4.723c2.53-0.709,5.238-0.06,5.354-0.029c0.27,0.064,0.433,0.336,0.364,0.604
	c-0.063,0.27-0.334,0.435-0.604,0.365c-0.025-0.006-2.571-0.614-4.844,0.023c-2.705,0.758-3.78,4.026-3.791,4.062
	C2.799,30.734,2.603,30.869,2.391,30.869z"/>
<path fill="#FFFFFF" d="M6.421,36.869c-0.254,0-0.471-0.19-0.496-0.448c-0.018-0.162-0.368-3.996,2.24-6.107
	c2.045-1.654,4.828-2.135,4.943-2.154c0.268-0.047,0.529,0.14,0.575,0.41c0.046,0.271-0.139,0.529-0.41,0.575
	c-0.023,0.004-2.646,0.46-4.479,1.946c-2.188,1.769-1.878,5.194-1.874,5.229c0.023,0.274-0.175,0.521-0.449,0.546
	C6.455,36.868,6.438,36.869,6.421,36.869z"/>
</svg>
