<?xml version="1.0" encoding="utf-8"?>
<!-- Generator: Adobe Illustrator 16.0.0, SVG Export Plug-In . SVG Version: 6.00 Build 0)  -->
<!DOCTYPE svg PUBLIC "-//W3C//DTD SVG 1.1//EN" "http://www.w3.org/Graphics/SVG/1.1/DTD/svg11.dtd">
<svg version="1.1" id="Layer_1" xmlns="http://www.w3.org/2000/svg" xmlns:xlink="http://www.w3.org/1999/xlink" x="0px" y="0px"
	 width="14.927px" height="15px" viewBox="23.622 7.5 14.927 15" enable-background="new 23.622 7.5 14.927 15"
	 xml:space="preserve">
<g>
	<g>
		<path fill="#686868" d="M38.33,21.22l-2.748-2.761c0.921-1.155,1.475-2.617,1.475-4.209c0-3.722-3.014-6.75-6.717-6.75
			c-3.705,0-6.718,3.028-6.718,6.75c0,3.723,3.013,6.75,6.718,6.75c1.583,0,3.038-0.557,4.188-1.481l2.748,2.762
			c0.146,0.146,0.336,0.22,0.527,0.22s0.382-0.073,0.527-0.22C38.622,21.987,38.622,21.513,38.33,21.22z M25.115,14.25
			c0-2.895,2.344-5.25,5.225-5.25c2.88,0,5.224,2.355,5.224,5.25c0,1.443-0.583,2.752-1.524,3.701
			c-0.003,0.003-0.007,0.004-0.01,0.007s-0.004,0.007-0.007,0.01c-0.945,0.946-2.247,1.532-3.683,1.532
			C27.459,19.5,25.115,17.145,25.115,14.25z"/>
	</g>
</g>
</svg>
